<svg xmlns="http://www.w3.org/2000/svg" xmlns:xlink="http://www.w3.org/1999/xlink" fill="none" version="1.1" width="609" height="263" viewBox="0 0 609 263"><defs><filter id="master_svg0_6_1324" filterUnits="objectBoundingBox" color-interpolation-filters="sRGB" x="-0.035398230088495575" y="-0.0730593607305936" width="1.0707964601769913" height="1.182648401826484"><feFlood flood-opacity="0" result="BackgroundImageFix"/><feColorMatrix in="SourceAlpha" type="matrix" values="0 0 0 0 0 0 0 0 0 0 0 0 0 0 0 0 0 0 127 0"/><feOffset dy="4" dx="0"/><feGaussianBlur stdDeviation="5"/><feColorMatrix type="matrix" values="0 0 0 0 0 0 0 0 0 0 0 0 0 0 0 0 0 0 0.30000001192092896 0"/><feBlend mode="normal" in2="BackgroundImageFix" result="effect1_dropShadow"/><feBlend mode="normal" in="SourceGraphic" in2="effect1_dropShadow" result="shape"/></filter><linearGradient x1="304.5" y1="18" x2="304.5" y2="237" gradientUnits="userSpaceOnUse" id="master_svg1_1_9331"><stop offset="0%" stop-color="#FFB400" stop-opacity="1"/><stop offset="56.17990493774414%" stop-color="#BE6221" stop-opacity="0.8278587460517883"/><stop offset="100%" stop-color="#2C1200" stop-opacity="1"/></linearGradient></defs><g filter="url(#master_svg0_6_1324)"><path d="M112.175781,70.710938Q112.527344,71.414062,112.615234,75.632812Q112.703125,79.851562,112.615234,85.828125Q112.527344,91.804688,112.175781,98.572266Q111.824219,105.339844,111.296875,111.316406Q110.945312,114.65625,110.154297,121.33594Q109.363281,128.01562,108.308594,136.10156Q107.253906,144.1875,106.111328,152.71289Q104.96875,161.23828,103.914062,168.35742Q102.859375,175.47656,102.068359,180.22266Q101.277344,184.96875,100.925781,185.32031Q100.222656,185.84766,98.640625,187.86914Q97.058594,189.89062,95.212891,191.91211Q93.367188,193.93359,91.785156,195.16406Q90.203125,196.39453,89.675781,195.51562Q89.324219,193.75781,89.324219,184.61719Q89.324219,180.75,89.412109,174.86133Q89.5,168.97266,89.763672,160.53516Q90.027344,152.09766,90.554688,140.84766000000002Q91.082031,129.59766000000002,91.785156,114.832031Q88.269531,126.78516,85.544922,135.92578Q82.820312,145.06641000000002,80.798828,151.83398Q78.777344,158.60156,77.371094,163.25977Q75.964844,167.91797,74.910156,170.90625Q72.625,177.9375,71.921875,179.16797Q71.21875,179.34375,69.724609,178.11328Q68.230469,176.88281,66.384766,174.50977Q64.539062,172.13672,62.693359,168.79688Q60.847656,165.45703,59.617188,161.41406Q58.386719,157.72266,56.453125,151.57031Q54.695312,146.29688,51.882812,137.77148Q49.070312,129.24608999999998,45.027344,116.414062Q46.082031,130.82812,46.785156,141.72656Q47.488281,152.625,47.927734,160.71094Q48.367188,168.79688,48.630859,174.33398Q48.894531,179.87109,48.894531,183.5625Q49.070312,192,48.367188,193.23047Q46.609375,193.23047,44.587891,191.56055Q42.566406,189.89062,40.720703,187.51758Q38.875,185.14453,37.556641,182.85938Q36.238281,180.57422,36.0625,179.51953Q35.886719,178.81641,35.007812,173.01562Q34.128906,167.21484,32.986328,158.16211Q31.84375,149.10938,30.5253906,137.77148Q29.2070312,126.43359,28.0644531,114.65625Q26.921875,102.878906,26.21875,91.716797Q25.515625,80.554688,25.515625,71.765625Q25.515625,70.359375,29.03125,67.986328Q32.546875,65.613281,37.029297,63.416016Q41.511719,61.21875,45.378906,59.548828Q49.246094,57.878906,50.125,57.878906Q50.828125,57.878906,51.619141,61.921875Q52.410156,65.964844,53.464844,72.117188Q54.519531,78.269531,55.75,85.828125Q56.980469,93.386719,58.5625,100.242188Q59.792969,107.273438,61.550781,114.832031Q62.957031,121.33594,64.802734,129.1582Q66.648438,136.98047,68.933594,144.36328Q71.394531,133.64062,73.416016,124.93945Q75.4375,116.238281,77.019531,110.085938Q78.953125,102.878906,80.359375,97.253906Q83.523438,83.542969,86.599609,75.632812Q89.675781,67.722656,90.554688,66.316406Q91.082031,65.613281,94.333984,65.964844Q97.585938,66.316406,101.453125,67.107422Q105.320312,67.898438,108.572266,68.953125Q111.824219,70.007812,112.175781,70.710938ZM161.57031,93.5625Q162.09766,93.914062,162.44922,98.132812Q162.80078,102.351562,163.06445,109.119141Q163.32812,115.886719,163.32812,124.5Q163.32812,133.11328,163.32812,142.25391000000002Q163.32812,151.39453,163.24023,160.27148Q163.15234,169.14844,162.88867,176.44336Q162.625,183.73828,162.36133,188.83594Q162.09766,193.93359,161.74609,195.33984Q161.39453,196.39453,159.72461,198.5918Q158.05469,200.78906,155.76953,203.07422Q153.48438,205.35938,151.11133,207.20508Q148.73828,209.05078,147.15625,209.57812Q143.99219,210.63281,140.125,209.22656Q136.25781,207.82031,132.83008,205.53516Q129.40233999999998,203.25,126.85352,200.70117Q124.30469,198.15234,123.77734,197.09766Q123.25,196.04297,122.81055,194.02148Q122.37109,192,122.19531,189.97852Q122.01953,187.95703,122.2832,186.46289Q122.54688,184.96875,123.42578,184.96875Q124.12891,184.96875,127.20508,186.55078Q130.28125,188.13281,133.79688,189.80273Q137.3125,191.47266,140.30078,192.52734Q143.28906,193.58203,143.99219,192.35156Q144.69531,190.94531,145.39844,184.70508Q146.10156,178.46484,146.80469,169.5Q140.65233999999998,171.60938,135.64258,172.22461Q130.63281,172.83984,127.29297,170.55469Q125.71094,169.5,124.04102,166.86328Q122.37109,164.22656,121.052734,160.79883Q119.734375,157.37109,118.855469,153.41602Q117.976562,149.46094,117.976562,145.94531Q117.976562,143.48438,118.591797,138.91406Q119.207031,134.34375,120.261719,128.89453Q121.316406,123.44531,122.45898,117.644531Q123.60156,111.84375,124.74414,107.097656Q125.88672,102.351562,126.67773,99.099609Q127.46875,95.847656,127.64453,95.496094Q127.99609,94.96875,129.40233999999998,94.880859Q130.80858999999998,94.792969,132.39062,95.056641Q133.97266000000002,95.320312,135.37891000000002,96.023438Q136.78516000000002,96.726562,137.13672,97.605469Q137.3125,98.308594,137.22460999999998,102Q137.13672,105.691406,136.69727,110.789062Q136.25781,115.886719,135.81835999999998,121.77539Q135.37891000000002,127.66406,134.93945,132.84960999999998Q134.5,138.03516000000002,134.14844,141.72656Q133.79688,145.41797,133.79688,146.12109Q133.79688,148.93359,134.41210999999998,151.48242Q135.02733999999998,154.03125,135.99414000000002,155.87695Q136.96094,157.72266,138.01562,158.77734Q139.07031,159.83203,139.94922,159.48047Q142.9375,158.95312,145.39844,158.07422Q146.62891000000002,157.54688,147.68358999999998,157.01953Q148.21094,148.40625,148.73828,139.35352Q149.26562,130.30078,149.61719,122.74219Q149.96875,115.183594,150.23242,109.910156Q150.49609,104.636719,150.49609,103.230469Q150.49609,101.648438,151.90234,99.626953Q153.30859,97.605469,155.06641,96.023438Q156.82422,94.441406,158.66992,93.650391Q160.51562,92.859375,161.57031,93.5625ZM226.60938,105.515625Q226.78516,107.449219,225.99414,111.492188Q225.20312,115.535156,223.70898,119.57812Q222.21484,123.62109,219.8418,126.60938Q217.46875,129.59766000000002,214.48047,129.59766000000002Q212.37109,129.59766000000002,211.05273,126.25781Q209.73438,122.91797,209.11914,118.43555Q208.50391,113.953125,208.15234,109.558594Q207.80078,105.164062,207.44922,103.40625Q206.92188,102.527344,205.42773,101.736328Q203.93359,100.945312,202.52734,100.945312Q201.12109,100.945312,199.36328,103.230469Q197.60547,105.515625,195.93555,108.503906Q194.26562,111.492188,193.12305,114.480469Q191.98047,117.46875,192.15625,118.875Q192.15625,119.92969,194.44141,122.56641Q196.72656,125.20312,200.1543,128.80664000000002Q203.58203,132.41016000000002,207.53711,136.54102Q211.49219,140.67188,214.83203,144.80273Q218.17188,148.93359,220.54492,152.625Q222.91797,156.31641,223.09375,158.95312Q223.26953,162.11719,221.42383,167.03906Q219.57812,171.96094,216.76562,176.53125Q213.95312,181.10156,210.78906,184.44141Q207.625,187.78125,205.16406,187.95703Q202.70312,188.13281,198.04492,185.23242Q193.38672,182.33203,188.72852,178.37695Q184.07031,174.42188,180.4668,170.55469Q176.86328,166.6875,176.33594,164.92969Q175.80859,163.34766,175.7207,160.71094Q175.63281,158.07422,175.89648,155.4375Q176.16016,152.80078,176.86328,150.95508Q177.56641,149.10938,178.62109,149.10938Q179.67578,149.10938,182.83984,152.71289Q186.00391,156.31641,189.69531,160.79883Q193.38672,165.28125,196.90234,168.88477Q200.41797,172.48828,202,172.48828Q202.87891,172.48828,203.93359,171.16992Q204.98828,169.85156,205.86719,168.09375Q206.74609,166.33594,207.36133,164.49023Q207.97656,162.64453,207.97656,161.58984Q207.80078,160.00781,205.16406,157.01953Q202.52734,154.03125,198.48438,150.33984Q194.44141,146.64844,189.69531,142.51758Q184.94922,138.38672,180.90625,134.69531Q176.86328,131.00391000000002,174.22656,128.01562Q171.58984,125.02734,171.41406,123.44531Q171.23828,121.86328,172.46875,118.43555Q173.69922,115.007812,175.63281,110.876953Q177.56641,106.746094,180.11523,102.351562Q182.66406,97.957031,185.30078,94.265625Q187.9375,90.574219,190.48633,88.201172Q193.03516,85.828125,194.96875,85.828125Q198.83594,85.828125,204.19727,87.9375Q209.55859,90.046875,214.48047,93.123047Q219.40234,96.199219,222.91797,99.539062Q226.43359,102.878906,226.60938,105.515625ZM270.90625,101.648438Q271.08203000000003,102.175781,270.90625,104.548828Q270.73046999999997,106.921875,270.29102,109.822266Q269.85156,112.722656,269.32421999999997,115.095703Q268.79688,117.46875,268.44531,117.996094Q266.6875,118.17188,264.92969,118.08398Q263.17188,117.996094,261.58984,117.996094L257.89844,117.996094Q257.72266,129.59766000000002,257.37109,141.02344Q257.01953000000003,152.44922,256.49219,161.50195Q255.96484,170.55469,255.34961,176.17969Q254.73438,181.80469,254.20703,181.98047Q252.97656,182.15625,251.39453,180.92578Q249.8125,179.69531,248.31836,177.84961Q246.82422,176.00391,245.68164,173.98242Q244.53906,171.96094,244.36328,170.37891Q243.48438,159.65625,242.78125,149.90039Q242.07812,140.14453,241.72656,132.58594Q241.02344,123.79688,240.84766,116.238281Q238.91406,116.0625,236.98047,115.710938Q235.22266,115.359375,233.37695,115.007812Q231.53125,114.65625,229.59766,114.304688Q229.24609,113.953125,228.71875,112.634766Q228.19141,111.316406,227.75195,109.734375Q227.3125,108.152344,226.96094,106.658203Q226.60938,105.164062,226.60938,104.460938Q226.60938,103.933594,230.56445,103.40625Q234.51953,102.878906,240.32031,102.527344Q239.96875,93.210938,239.88086,86.267578Q239.79297,79.324219,240.32031,76.863281Q240.84766,73.523438,243.2207,70.447266Q245.59375,67.371094,248.31836,65.085938Q251.04297,62.800781,253.41602,61.658203Q255.78906,60.515625,256.49219,61.042969Q257.01953000000003,61.394531,257.37109,64.646484Q257.72266,67.898438,257.89844,73.347656Q258.07421999999997,78.796875,258.07421999999997,86.091797Q258.07421999999997,93.386719,258.07421999999997,101.472656Q263.34766,101.121094,267.03906,101.208984Q270.73046999999997,101.296875,270.90625,101.648438ZM294.98828,116.414062Q295.33984,117.292969,295.42773,121.95117Q295.51562,126.60938,295.42773,133.20117Q295.33984,139.79297,294.98828,147.26367Q294.63672,154.73438,294.19727,161.32617Q293.75781,167.91797,293.23047,172.57617Q292.70312,177.23438,292.17578,178.11328Q290.59375,180.57422,287.42969,181.18945Q284.26562,181.80469,282.85938,181.45312Q282.15625,181.45312,281.36523,177.41016Q280.57422,173.36719,279.87109,167.21484Q279.16797,161.0625,278.64062,153.85547Q278.11328,146.64844,277.76171999999997,140.05664000000002Q277.41016,133.46483999999998,277.41016,128.54297Q277.41016,123.62109,277.76171999999997,122.21484Q278.28906,119.92969,280.83789,118.17188Q283.38672,116.414062,286.28711,115.535156Q289.1875,114.65625,291.73633,114.744141Q294.28516,114.832031,294.98828,116.414062ZM295.86719,87.9375Q296.57031,89.34375,296.48242,91.804688Q296.39453,94.265625,295.86719,96.902344Q295.33984,99.539062,294.46094,102Q293.58203,104.460938,292.70312,105.867188Q290.94531,108.328125,287.51758,108.943359Q284.08984,109.558594,282.50781,109.207031Q281.27734,109.03125,280.04688,107.537109Q278.81641,106.042969,277.9375,103.845703Q277.05859,101.648438,276.70703000000003,99.011719Q276.35546999999997,96.375,276.88281,94.089844Q277.41016,91.804688,280.22266,89.958984Q283.03516,88.113281,286.19922,87.146484Q289.36328,86.179688,292.17578,86.267578Q294.98828,86.355469,295.86719,87.9375ZM336.82422,95.847656Q336.12109,95.144531,333.83594,94.441406Q331.55078,93.738281,330.67188,94.96875Q330.14453,95.671875,328.91406,99.539062Q327.68359,103.40625,326.36523,109.382812Q325.04688,115.359375,324.08008,123.09375Q323.11328,130.82812,323.11328,139.08983999999998Q323.11328,145.06641000000002,323.64062,150.42773Q324.16797,155.78906,324.95898,159.83203Q325.75,163.875,326.89258,166.33594Q328.03516,168.79688,329.26562,168.97266Q330.32031,168.97266,331.81445,166.51172Q333.30859,164.05078,334.80273,160.79883Q336.29688,157.54688,337.43945,154.64648Q338.58203,151.74609,339.10938,150.86719Q340.51562,148.58203,342.80078,146.91211Q345.08594,145.24219,346.66797,145.24219Q347.54688,145.24219,347.98633,146.47266Q348.42578,147.70312,348.68945,149.37305Q348.95312,151.04297,348.95312,152.80078Q348.95312,154.55859,348.95312,155.61328Q348.95312,157.54688,348.25,162.82031Q347.54688,168.09375,346.22852,173.54297Q344.91016,178.99219,343.24023,183.21094Q341.57031,187.42969,339.63672,187.25391Q337.70312,187.07812,333.83594,185.49609Q329.96875,183.91406,326.01367,181.80469Q322.05859,179.69531,318.80664,177.49805Q315.55469,175.30078,314.85156,174.07031Q314.14844,172.83984,312.74219,168.00586Q311.33594,163.17188,309.8418,156.14062Q308.34766,149.10938,307.29297,140.67188Q306.23828,132.23438,306.23828,123.79688Q306.23828,115.359375,306.67773,107.097656Q307.11719,98.835938,308.17188,92.332031Q309.22656,85.828125,310.89648,81.785156Q312.56641,77.742188,315.02734,77.566406Q321.88281,76.863281,328.82617,78.708984Q335.76953,80.554688,341.30664,83.630859Q346.84375,86.707031,350.35938,90.134766Q353.875,93.5625,354.05078,95.847656Q354.22656,98.308594,353.78711,102.703125Q353.34766,107.097656,352.55664,111.580078Q351.76562,116.0625,350.79883,119.66602Q349.83203,123.26953,349.12891,123.79688Q347.54688,125.37891,345.4375,127.13672Q343.32812,128.89453,341.39453,127.83984Q340.69141,127.48828,340.16406,125.11523Q339.63672,122.74219,339.19727,119.22656Q338.75781,115.710938,338.40625,111.667969Q338.05469,107.625,337.79102,104.197266Q337.52734,100.769531,337.26367,98.396484Q337,96.023438,336.82422,95.847656ZM414.87109,91.277344Q414.16797,92.15625,406.25781,91.453125Q398.34766,90.75,381.29688,89.167969Q381.29688,94.96875,381.38477,103.40625Q381.47266,111.84375,381.29688,121.51172Q394.48047,122.74219,401.86328,123.79688Q409.24609,124.85156,409.59766,125.20312Q410.30078,125.90625,410.125,128.10352Q409.94922,130.30078,409.24609,132.9375Q408.54297,135.57422,407.48828,137.94727Q406.43359,140.32031,405.37891,141.02344Q404.5,141.375,398.43555,141.99023Q392.37109,142.60547,381.29688,143.13281Q381.29688,150.69141,381.20898,158.07422Q381.12109,165.45703,380.94531,171.60938Q397.99609,171.78516,405.81836,172.22461Q413.64062,172.66406,414.34375,173.36719Q415.04688,174.24609,414.43164,176.70703Q413.81641,179.16797,412.49805,181.89258Q411.17969,184.61719,409.68555,187.25391Q408.19141,189.89062,407.3125,190.94531Q406.96094,191.29688,403.09375,191.20898Q399.22656,191.12109,394.48047,190.76953Q389.73438,190.41797,385.33984,189.97852Q380.94531,189.53906,379.53906,189.1875Q376.90234,188.30859,373.91406,186.28711Q370.92578,184.26562,369.16797,181.10156Q368.81641,180.22266,368.02539,175.21289Q367.23438,170.20312,366.35547,162.46875Q365.47656,154.73438,364.59766,145.06641000000002Q363.71875,135.39844,362.83984,125.37891Q361.96094,115.359375,361.25781,105.691406Q360.55469,96.023438,360.11523,88.201172Q359.67578,80.378906,359.67578,75.193359Q359.67578,70.007812,360.20312,68.953125Q360.73047,67.546875,365.125,66.84375Q369.51953,66.140625,375.67188,65.876953Q381.82422,65.613281,388.94336,65.789062Q396.0625,65.964844,402.21484,66.404297Q408.36719,66.84375,412.58594,67.458984Q416.80469,68.074219,417.33203,68.601562Q418.03516,69.480469,418.12305,72.644531Q418.21094,75.808594,417.77148,79.587891Q417.33203,83.367188,416.54102,86.794922Q415.75,90.222656,414.87109,91.277344ZM451.43359,95.847656Q450.73047,95.144531,448.44531,94.441406Q446.16016,93.738281,445.28125,94.96875Q444.75391,95.671875,443.52344,99.539062Q442.29297,103.40625,440.97461,109.382812Q439.65625,115.359375,438.68945,123.09375Q437.72266,130.82812,437.72266,139.08983999999998Q437.72266,145.06641000000002,438.25,150.42773Q438.77734,155.78906,439.56836,159.83203Q440.35938,163.875,441.50195,166.33594Q442.64453,168.79688,443.875,168.97266Q444.92969,168.97266,446.42383,166.51172Q447.91797,164.05078,449.41211,160.79883Q450.90625,157.54688,452.04883,154.64648Q453.19141,151.74609,453.71875,150.86719Q455.125,148.58203,457.41016,146.91211Q459.69531,145.24219,461.27734,145.24219Q462.15625,145.24219,462.5957,146.47266Q463.03516,147.70312,463.29883,149.37305Q463.5625,151.04297,463.5625,152.80078Q463.5625,154.55859,463.5625,155.61328Q463.5625,157.54688,462.85938,162.82031Q462.15625,168.09375,460.83789,173.54297Q459.51953,178.99219,457.84961,183.21094Q456.17969,187.42969,454.24609,187.25391Q452.3125,187.07812,448.44531,185.49609Q444.57812,183.91406,440.62305,181.80469Q436.66797,179.69531,433.41602,177.49805Q430.16406,175.30078,429.46094,174.07031Q428.75781,172.83984,427.35156,168.00586Q425.94531,163.17188,424.45117,156.14062Q422.95703,149.10938,421.90234,140.67188Q420.84766,132.23438,420.84766,123.79688Q420.84766,115.359375,421.28711,107.097656Q421.72656,98.835938,422.78125,92.332031Q423.83594,85.828125,425.50586,81.785156Q427.17578,77.742188,429.63672,77.566406Q436.49219,76.863281,443.43555,78.708984Q450.37891,80.554688,455.91602,83.630859Q461.45312,86.707031,464.96875,90.134766Q468.48438,93.5625,468.66016,95.847656Q468.83594,98.308594,468.39648,102.703125Q467.95703,107.097656,467.16602,111.580078Q466.375,116.0625,465.4082,119.66602Q464.44141,123.26953,463.73828,123.79688Q462.15625,125.37891,460.04688,127.13672Q457.9375,128.89453,456.00391,127.83984Q455.30078,127.48828,454.77344,125.11523Q454.24609,122.74219,453.80664,119.22656Q453.36719,115.710938,453.01562,111.667969Q452.66406,107.625,452.40039,104.197266Q452.13672,100.769531,451.87305,98.396484Q451.60938,96.023438,451.43359,95.847656ZM517.3515600000001,112.019531Q519.10938,113.074219,520.7792999999999,115.886719Q522.44922,118.69922,523.85547,122.30273Q525.26172,125.90625,526.14062,130.03710999999998Q527.01953,134.16797,527.01953,137.85938Q527.01953,140.32031,526.31641,145.1543Q525.61328,149.98828,524.55859,155.70117Q523.50391,161.41406,522.2734399999999,167.39062Q521.04297,173.36719,519.98828,178.28906Q518.93359,183.21094,518.0546899999999,186.55078Q517.17578,189.89062,517,190.24219Q516.6484399999999,190.76953,514.97852,190.94531Q513.30859,191.12109,511.46289,190.76953Q509.61719,190.41797,508.03516,189.71484Q506.45312,189.01172,506.10156,187.95703Q505.92578,187.25391,506.01367,183.47461Q506.10156,179.69531,506.36523,174.42188Q506.62891,169.14844,507.06836,162.99609Q507.50781,156.84375,507.85938,151.48242Q508.21094,146.12109,508.47461,142.25391000000002Q508.73828,138.38672,508.73828,137.68358999999998Q508.91406,134.87108999999998,508.29883,132.14648Q507.68359,129.42188,506.7168,127.48828Q505.75,125.55469,504.60742,124.5Q503.46484,123.44531,502.41016,123.79688Q500.82812,124.14844,499.33398,124.67578Q497.83984,125.20312,496.78516,125.55469Q495.37891,126.08203,494.32422,126.60938Q494.14844,139.61719,493.79688,152.09766Q493.44531,164.57812,492.91797,174.50977Q492.39062,184.44141,491.77539,190.50586Q491.16016,196.57031,490.45703,196.74609Q489.05078,196.92188,487.38086,195.51562Q485.71094,194.10938,484.12891,192.08789Q482.54688,190.06641,481.4043,187.78125Q480.26172,185.49609,479.91016,183.91406Q478.50391,166.6875,477.625,153.06445Q476.74609,139.44141000000002,476.21875,128.89453Q475.69141,118.34766,475.42773,110.613281Q475.16406,102.878906,475.16406,97.429688Q474.98828,84.597656,475.51562,79.675781Q476.21875,75.984375,478.67969,72.556641Q481.14062,69.128906,484.04102,66.492188Q486.94141,63.855469,489.49023,62.537109Q492.03906,61.21875,492.91797,61.921875Q493.44531,62.449219,493.88477,66.755859Q494.32422,71.0625,494.5,78.181641Q494.67578,85.300781,494.67578,94.529297Q494.67578,103.757812,494.5,113.953125Q501.53125,111.140625,507.5957,110.4375Q513.66016,109.734375,517.3515600000001,112.019531ZM574.30469,95.847656Q575.53516,96.902344,576.67773,99.890625Q577.82031,102.878906,578.69922,107.097656Q579.57812,111.316406,580.28125,116.238281Q580.98438,121.16016,581.51172,125.90625Q582.03906,130.65233999999998,582.30273,134.7832Q582.56641,138.91406,582.74219,141.55078Q582.91797,144.71483999999998,583.00586,148.14258Q583.09375,151.57031,583.00586,154.64648Q582.91797,157.72266,582.6543,160.18359Q582.39062,162.64453,581.86328,163.875Q580.80859,166.51172,578.25977,167.47852Q575.71094,168.44531,572.54688,168.79688Q570.96484,168.97266,567.18555,168.88477Q563.40625,168.79688,559.09961,168.5332Q554.79297,168.26953,550.92578,167.91797Q547.05859,167.56641,545.125,167.21484Q541.25781,166.33594,539.58789,164.92969Q537.91797,163.52344,536.33594,160.88672Q535.80859,159.83203,535.45703,155.52539Q535.10547,151.21875,535.01758,145.1543Q534.92969,139.08983999999998,535.10547,132.05858999999998Q535.28125,125.02734,535.7207,118.69922Q536.16016,112.371094,536.77539,107.625Q537.39062,102.878906,538.44531,101.296875Q540.20312,98.835938,544.50977,96.726562Q548.81641,94.617188,552.33203,93.386719Q554.08984,92.859375,556.99023,92.595703Q559.89062,92.332031,563.14258,92.595703Q566.39453,92.859375,569.38281,93.650391Q572.37109,94.441406,574.30469,95.847656ZM564.46094,150.33984Q564.8125,149.63672,565.25195,146.0332Q565.69141,142.42969,565.95508,137.33203Q566.21875,132.23438,566.30664,126.43359Q566.39453,120.63281,566.39453,115.710938Q566.39453,110.789062,566.04297,107.361328Q565.69141,103.933594,565.16406,103.40625Q564.28516,102.703125,562.61523,102.791016Q560.94531,102.878906,559.1875,103.318359Q557.42969,103.757812,556.02344,104.373047Q554.61719,104.988281,554.08984,105.515625Q551.80469,107.449219,551.62891,111.84375Q551.62891,113.074219,551.36523,118.78711Q551.10156,124.5,551.10156,131.0918Q551.10156,137.68358999999998,551.36523,143.30858999999998Q551.62891,148.93359,552.50781,150.16406Q553.38672,151.39453,555.05664,152.00977Q556.72656,152.625,558.57227,152.625Q560.41797,152.625,562.08789,152.00977Q563.75781,151.39453,564.46094,150.33984Z" fill="url(#master_svg1_1_9331)" fill-opacity="1"/><path d="M114.614799,75.591156Q114.517532,70.922287,113.964645,69.816509Q113.238335,68.363888,109.18927,67.050682Q105.83078,65.96143699999999,101.85392,65.14799099999999Q97.894524,64.338116,94.54895,63.976433Q90.165115,63.502502,88.954689,65.116405L88.903717,65.184368L88.858696,65.25640899999999Q87.880005,66.822319,84.735603,74.907921Q81.607117,82.952599,78.41909,96.768837Q77.01697899999999,102.377274,75.08254600000001,109.58786Q73.494686,115.762871,71.467236,124.48974L68.711479,136.43135Q67.674782,132.62124,66.74928299999999,128.69891Q64.90789000000001,120.89489,63.498798,114.379013Q61.753513,106.874283,60.532562,99.89743L60.523331,99.844666L60.511284,99.792473Q58.94397,93.000786,57.72279,85.499329L55.436089,71.779263Q54.377434,65.60378299999999,53.581928000000005,61.537853Q52.474743000000004,55.878906,50.125,55.878906Q48.832722000000004,55.878906,44.586034999999995,57.712704Q40.674645999999996,59.401711,36.148983,61.620174Q31.542465200000002,63.878273,27.9123049,66.328629Q23.515625,69.29638700000001,23.515625,71.765625Q23.515625,80.617622,24.2227063,91.842537Q24.9279561,103.038376,26.0737991,114.84938Q27.218214,126.64565,28.5387759,138.00249Q29.8582678,149.35011,31.0020704,158.41255Q32.147757999999996,167.48993,33.030382,173.31525Q33.8823,178.9379,34.102419,179.92047Q34.362896,181.32578,35.82427,183.85883Q37.211603,186.26353,39.141998,188.74547Q41.122894,191.29233,43.314129,193.10248Q45.890118,195.23047,48.367188,195.23047L49.527832000000004,195.23047L50.103674,194.22275Q51.081406,192.5117,50.894531,183.5625Q50.894531,179.82349,50.628202,174.2309L49.924788,160.60242Q49.484787,152.50639,48.78035,141.58801L48.174355,132.86166Q49.135235,135.82677,49.984241,138.40031L54.545139,152.16997Q56.477448,158.31821,57.711582,162.02179Q59.001331,166.25098,60.942879,169.76425Q62.864277,173.24107,64.806061,175.73766Q66.78788800000001,178.28572,68.453197,179.65715Q70.725655,181.52858,72.406948,181.10826L73.234924,180.90126L73.65836300000001,180.16025Q74.462196,178.75354,76.804531,171.54811Q77.87174999999999,168.52165,79.28675100000001,163.83447L82.715355,152.40576L87.462761,136.49315L89.004974,131.28001999999998L88.556885,140.75401Q88.028816,152.01945,87.764648,160.47269Q87.500473,168.92648,87.412338,174.83148Q87.324219,180.73515,87.324219,184.61719Q87.324219,193.95586,87.714622,195.90787L87.782562,196.24756L87.9608,196.54462Q88.925064,198.15172,90.795593,197.83997Q91.822365,197.66885,93.013039,196.74277Q94.729416,195.40781,96.689865,193.26065Q98.586906,191.18292,100.215637,189.10178Q101.634506,187.28877,102.125786,186.92032L102.239494,186.83504L102.339996,186.73453Q103.144768,185.92976,104.041153,180.55145Q104.835159,175.78743,105.892471,168.65053Q106.949188,161.51767,108.094055,152.97516L110.291801,136.36024Q111.347992,128.26273,112.140427,121.57114Q112.932976,114.87851,113.289139,111.492203Q113.819656,105.479721,114.173088,98.676025Q114.526581,91.871155,114.615021,85.857536Q114.70343,79.845612,114.614799,75.591156ZM89.400108,122.92586Q90.542999,119.05536,91.785156,114.832031Q91.578461,119.17278,91.385895,123.23184Q90.926407,132.91776,90.554688,140.84766000000002Q90.027344,152.09766,89.763672,160.53516Q89.5,168.97266,89.412109,174.86133Q89.324219,180.75,89.324219,184.61719Q89.324219,193.75781,89.675781,195.51562Q89.798828,195.7207,89.979301,195.81094Q90.572266,196.10742,91.785156,195.16406Q93.367188,193.93359,95.212891,191.91211Q97.058594,189.89062,98.640625,187.86914Q100.222656,185.84766,100.925781,185.32031Q101.277344,184.96875,102.068359,180.22266Q102.859375,175.47656,103.914062,168.35742Q104.96875,161.23828,106.111328,152.71289Q107.253906,144.1875,108.308594,136.10156Q109.363281,128.01562,110.154297,121.33594Q110.945312,114.65625,111.296875,111.316406Q111.824219,105.339844,112.175781,98.572266Q112.527344,91.804688,112.615234,85.828125Q112.703125,79.851562,112.615234,75.632812Q112.527344,71.414062,112.175781,70.710938Q111.824219,70.007812,108.572266,68.953125Q105.320312,67.898438,101.453125,67.107422Q97.585938,66.316406,94.333984,65.964844Q91.082031,65.613281,90.554688,66.316406Q89.675781,67.722656,86.599609,75.632812Q83.523438,83.542969,80.359375,97.253906Q78.953125,102.878906,77.019531,110.085938Q75.4375,116.238281,73.416016,124.93945Q71.772301,132.01458,69.83802800000001,140.42626Q69.393478,142.3595,68.933594,144.36328Q68.339066,142.4425,67.77435299999999,140.49222Q66.168285,134.94553000000002,64.802734,129.1582Q62.957031,121.33594,61.550781,114.832031Q59.792969,107.273438,58.5625,100.242188Q56.980469,93.386719,55.75,85.828125Q54.519531,78.269531,53.464844,72.117188Q52.410156,65.964844,51.619141,61.921875Q50.828125,57.878906,50.125,57.878906Q49.246094,57.878906,45.378906,59.548828Q41.511719,61.21875,37.029297,63.416016Q32.546875,65.613281,29.03125,67.986328Q25.515625,70.359375,25.515625,71.765625Q25.515625,80.554688,26.21875,91.716797Q26.921875,102.878906,28.0644531,114.65625Q29.2070312,126.43359,30.5253906,137.77148Q31.84375,149.10938,32.986328,158.16211Q34.128906,167.21484,35.007812,173.01562Q35.886719,178.81641,36.0625,179.51953Q36.238281,180.57422,37.556641,182.85938Q38.875,185.14453,40.720703,187.51758Q42.566406,189.89062,44.587891,191.56055Q46.609375,193.23047,48.367188,193.23047Q49.070312,192,48.894531,183.5625Q48.894531,179.87109,48.630859,174.33398Q48.367188,168.79688,47.927734,160.71094Q47.488281,152.625,46.785156,141.72656Q46.299368,134.19684999999998,45.645763,124.98895Q45.353346,120.8694,45.027344,116.414062Q46.379903999999996,120.70697,47.594975000000005,124.51858Q50.011356,132.09863,51.882812,137.77148Q54.695312,146.29688,56.453125,151.57031Q58.386719,157.72266,59.617188,161.41406Q60.847656,165.45703,62.693359,168.79688Q64.539062,172.13672,66.384766,174.50977Q68.230469,176.88281,69.724609,178.11328Q71.21875,179.34375,71.921875,179.16797Q72.625,177.9375,74.910156,170.90625Q75.964844,167.91797,77.371094,163.25977Q78.777344,158.60156,80.798828,151.83398Q82.820312,145.06641000000002,85.544922,135.92578Q87.30719,130.01366000000002,89.400108,122.92586ZM272.90079000000003,104.696579Q273.10618999999997,101.923683,272.80362,101.015984L272.75867,100.881142L272.69511,100.754013Q271.98114,99.326088,267.08667,99.209549Q264.08031,99.13797,260.07421999999997,99.349274L260.07421999999997,86.091797Q260.07421999999997,78.764557,259.8974,73.283173Q259.71918,67.758415,259.35953,64.43151900000001Q258.92316,60.395332,257.69168,59.443649L257.69218,59.44297Q256.01662999999996,58.186302,252.54839,59.856201Q249.94969,61.10743,247.03314,63.553555Q244.14255,65.97794300000001,241.63715,69.22565800000001Q238.97028,72.682716,238.35321,76.498611Q237.7912,79.196884,237.88103,86.292892Q237.95993,92.525925,238.25029,100.657646Q233.64006,100.97847,230.30014,101.423798Q228.6602,101.642456,227.49284,101.987312Q226.41257,100.100296,224.29547,98.089066Q220.63353,94.610214,215.54047,91.427055Q210.46234,88.253227,204.9295,86.07637Q199.21521,83.828125,194.96875,83.828125Q192.24826,83.828125,189.1235,86.737389Q186.42715,89.247787,183.67331,93.103149Q180.98155,96.871613,178.38518,101.348129Q175.79227,105.818649,173.82144,110.029076Q171.84834,114.244316,170.58636,117.759819Q169.19934,121.62366,169.4263,123.66618Q169.67189,125.87653,172.7269,129.33887Q175.43504,132.4081,179.55771,136.17229Q183.61816,139.87965,188.38226,144.02618Q193.11053,148.14154,197.13585,151.81682Q201.09906,155.43541,203.6644,158.34277Q205.77354,160.73315,205.97324,161.71297Q205.93521,162.44411,205.46397,163.85779Q204.89371,165.56857,204.07834,167.19933Q203.29419,168.76761,202.37186,169.92053Q202.07162,170.29582,201.85278,170.465Q201.00302,170.22397,198.33391,167.48813Q194.87712,163.94492,191.23918,159.52742Q187.52774,155.02069,184.34273,151.3933Q180.58124,147.10938,178.62109,147.10938Q176.18811,147.10938,174.99431,150.24309Q174.19655,152.33722,173.90642,155.23849Q173.62949,158.00778,173.72182,160.77757Q173.81871,163.68448,174.43008,165.53656Q175.11029,167.73999,179.00359,171.91815Q182.68677,175.87082,187.43405,179.90155Q192.20453,183.95195,196.98782,186.93022Q202.19756,190.17401,205.30656,189.95195Q208.54253,189.72081,212.24097,185.81689Q215.5477,182.32646,218.46893,177.57945Q221.38287,172.84431,223.29649,167.74132Q225.28978,162.42589,225.08932,158.8201Q224.87924,155.66875,222.22728,151.54349Q219.79546,147.76064,216.3873,143.54529Q212.99475,139.34926000000002,208.98383,135.16006L201.60342,127.42822Q198.20758,123.85823,195.95279,121.25655Q194.15625,119.18362,194.15625,118.875L194.15625,118.75049L194.14081,118.62694Q194.02701,117.716393,194.99115,115.194748Q196.08206,112.341606,197.68144,109.479553Q199.28,106.619003,200.94853,104.44989Q202.1059,102.945312,202.52734,102.945312Q203.43686,102.945312,204.49197,103.503906Q205.24327,103.901665,205.56644,104.226715Q205.85727,105.949974,206.15872,109.718094Q206.5148,114.169029,207.13773,118.70751Q207.78569,123.4284,209.19243,126.99215Q211.01041,131.59766000000002,214.48047,131.59766000000002Q218.43443,131.59766000000002,221.40802,127.85314Q223.97998,124.61438,225.58499,120.27142Q226.64891,117.392548,227.36984,114.510315Q227.784,115.31945,228.18346,115.718903L228.62204,116.157494L233.00273,116.972496Q234.83989,117.322433,236.62271,117.67868Q237.75891,117.885269,238.89539,118.03381Q239.10539,124.8922,239.73027,132.71213Q240.08301,140.28439,240.78642,150.04416Q241.49016,159.80836,242.36998,170.5423L242.37234,170.57108L242.37552,170.59978Q242.5965,172.58867,243.94052,174.96654Q245.16498,177.13289,246.76389,179.108Q248.40292,181.13269,250.16666,182.50449Q252.41888,184.25623,254.48987,183.96037L254.6684,183.93488L254.83948,183.87784Q256.58311000000003,183.29663,257.33775,176.39716Q257.95853999999997,170.72145,258.48882000000003,161.61827Q259.01776,152.53806,259.37016,141.08495Q259.69232,130.61422,259.8671,119.99609L261.58984,119.99609Q263.12185999999997,119.99609,264.82982000000004,120.0815Q266.7373,120.17687,268.64432999999997,119.98617L269.58501,119.89211L270.10942,119.10549Q270.66821,118.26732,271.27660000000003,115.529564Q271.81879000000004,113.089691,272.26846,110.12188Q272.71934999999996,107.146072,272.90079000000003,104.696579ZM257.89844,117.996094L261.58984,117.996094Q263.17188,117.996094,264.92969,118.08398Q266.6875,118.17188,268.44531,117.996094Q268.79688,117.46875,269.32421999999997,115.095703Q269.85156,112.722656,270.29102,109.822266Q270.73046999999997,106.921875,270.90625,104.548828Q271.08203000000003,102.175781,270.90625,101.648438Q270.73046999999997,101.296875,267.03906,101.208984Q264.06883,101.138268,260.07421999999997,101.352074Q259.10423000000003,101.403992,258.07421999999997,101.472656L258.07421999999997,86.091797Q258.07421999999997,78.796875,257.89844,73.347656Q257.72266,67.898438,257.37109,64.646484Q257.01953000000003,61.394531,256.49219,61.042969Q255.78906,60.515625,253.41602,61.658203Q251.04297,62.800781,248.31836,65.085938Q245.59375,67.371094,243.2207,70.447266Q240.84766,73.523438,240.32031,76.863281Q239.79297,79.324219,239.88086,86.267578Q239.96875,93.210938,240.32031,102.527344Q234.51953,102.878906,230.56445,103.40625Q229.18901,103.589645,228.29192,103.773033Q226.60938,104.116989,226.60938,104.460938Q226.60938,104.857414,226.72118,105.505463L226.72165,105.508141Q226.80807,106.008507,226.96094,106.658203Q227.3125,108.152344,227.75195,109.734375Q227.93109,110.379242,228.12497,110.980713Q228.40649,111.854111,228.71875,112.634766Q229.24609,113.953125,229.59766,114.304688Q231.53125,114.65625,233.37695,115.007812Q235.22266,115.359375,236.98047,115.710938Q238.91406,116.0625,240.84766,116.238281Q241.02344,123.79688,241.72656,132.58594Q242.07812,140.14453,242.78125,149.90039Q243.48438,159.65625,244.36328,170.37891Q244.53906,171.96094,245.68164,173.98242Q246.82422,176.00391,248.31836,177.84961Q249.8125,179.69531,251.39453,180.92578Q252.97656,182.15625,254.20703,181.98047Q254.73438,181.80469,255.34961,176.17969Q255.96484,170.55469,256.49219,161.50195Q257.01953000000003,152.44922,257.37109,141.02344Q257.72266,129.59766000000002,257.89844,117.996094ZM226.60938,105.515625Q226.52403,104.235367,225.65131,102.789375Q224.72662,101.257286,222.91797,99.539062Q219.40234,96.199219,214.48047,93.123047Q209.55859,90.046875,204.19727,87.9375Q198.83594,85.828125,194.96875,85.828125Q193.03516,85.828125,190.48633,88.201172Q187.9375,90.574219,185.30078,94.265625Q182.66406,97.957031,180.11523,102.351562Q177.56641,106.746094,175.63281,110.876953Q173.69922,115.007812,172.46875,118.43555Q171.23828,121.86328,171.41406,123.44531Q171.58984,125.02734,174.22656,128.01562Q176.86328,131.00391000000002,180.90625,134.69531Q184.94922,138.38672,189.69531,142.51758Q194.44141,146.64844,198.48438,150.33984Q202.52734,154.03125,205.16406,157.01953Q207.80078,160.00781,207.97656,161.58984Q207.97656,162.64453,207.36133,164.49023Q206.74609,166.33594,205.86719,168.09375Q204.98828,169.85156,203.93359,171.16992Q202.87891,172.48828,202,172.48828Q200.41797,172.48828,196.90234,168.88477Q193.38672,165.28125,189.69531,160.79883Q186.00391,156.31641,182.83984,152.71289Q179.67578,149.10938,178.62109,149.10938Q177.56641,149.10938,176.86328,150.95508Q176.16016,152.80078,175.89648,155.4375Q175.63281,158.07422,175.7207,160.71094Q175.80859,163.34766,176.33594,164.92969Q176.86328,166.6875,180.4668,170.55469Q184.07031,174.42188,188.72852,178.37695Q193.38672,182.33203,198.04492,185.23242Q202.70312,188.13281,205.16406,187.95703Q207.625,187.78125,210.78906,184.44141Q213.95312,181.10156,216.76562,176.53125Q219.57812,171.96094,221.42383,167.03906Q223.26953,162.11719,223.09375,158.95312Q222.91797,156.31641,220.54492,152.625Q218.17188,148.93359,214.83203,144.80273Q211.49219,140.67188,207.53711,136.54102Q203.58203,132.41016000000002,200.1543,128.80664000000002Q196.72656,125.20312,194.44141,122.56641Q192.15625,119.92969,192.15625,118.875Q191.98047,117.46875,193.12305,114.480469Q194.26562,111.492188,195.93555,108.503906Q197.60547,105.515625,199.36328,103.230469Q201.12109,100.945312,202.52734,100.945312Q203.93359,100.945312,205.42773,101.736328Q206.92188,102.527344,207.44922,103.40625Q207.80078,105.164062,208.15234,109.558594Q208.50391,113.953125,209.11914,118.43555Q209.73438,122.91797,211.05273,126.25781Q212.37109,129.59766000000002,214.48047,129.59766000000002Q217.46875,129.59766000000002,219.8418,126.60938Q222.21484,123.62109,223.70898,119.57812Q225.20312,115.535156,225.99414,111.492188Q226.03256,111.295898,226.06839,111.106155Q226.77666,107.355743,226.60938,105.515625ZM518.39301,110.312035Q518.38696,110.308411,518.3805500000001,110.30455Q514.10248,107.669693,507.36536,108.450806Q502.26453,109.042206,496.54706,111.047966Q496.67578,102.434891,496.67578,94.529297Q496.67578,85.276138,496.49939,78.13227499999999Q496.32172,70.93615,495.87445,66.55283399999999Q495.36276,61.538204,494.33221,60.507664L494.25388,60.429337L494.16736,60.360138Q492.27405,58.845497,488.57138,60.760677Q485.78992,62.199352,482.69568,65.01231Q479.63913,67.791012,477.05505,71.39022800000001Q474.33667,75.176567,473.55096,79.301559L473.53571,79.38164900000001L473.52704,79.462715Q472.98682,84.504448,473.16406,97.429688Q473.16406,102.912445,473.42892,110.681427Q473.69321,118.43368,474.22125,128.99441000000002Q474.74927,139.55475,475.62915,153.19322Q476.50916,166.83319,477.91681,184.07678L477.92798,184.21378L477.95776,184.34793Q478.36273,186.17026,479.61545,188.67569Q480.8479,191.14062,482.55392,193.32053Q484.26398,195.50555,486.09259,197.04546Q488.43127,199.01489,490.70514,198.73065L490.82495,198.71568L490.94211,198.68639Q493.00815,198.16986,493.7652,190.70773Q494.38531,184.59534,494.91516,174.61581Q495.44385,164.65877,495.79611,152.15398Q496.13098,140.2659,496.30658,127.89809Q496.84143,127.67034,497.45334,127.44015Q498.51428,127.086,499.99963,126.56176Q501.37985,126.07463,502.84406,125.74925L502.93835,125.72829Q503.05841,125.79195,503.25085,125.9696Q504.12473,126.77623,504.92795,128.38271Q505.78619,130.09918,506.34796,132.58701000000002Q506.90012,135.03226999999998,506.74219,137.55884L506.73828,137.62115L506.73828,137.68358999999998Q506.73828,138.31871,506.47906,142.12087L505.86411,151.34534L505.07346,162.85361Q504.63242,169.02802,504.36774,174.32201Q504.10272,179.62207,504.01422,183.42812Q503.92004,187.47708,504.16132,188.44211L504.1799,188.51663L504.20419,188.58949Q504.83472,190.48106,507.22287,191.54247Q509.01605,192.33942,511.08868,192.73422Q513.22437,193.14102,515.18787,192.93433Q517.79169,192.66025,518.66412,191.35159L518.73315,191.24799L518.7888800000001,191.13663Q519.0572500000001,190.59982,519.9888599999999,187.05977Q520.87949,183.67545,521.94574,178.69949L524.23236,167.79395Q525.4669799999999,161.79718,526.52536,156.06427Q527.58698,150.31384,528.29559,145.44218Q529.01953,140.46497,529.01953,137.85938Q529.01953,133.95753000000002,528.09686,129.6209Q527.18408,125.33083,525.7186300000001,121.57565Q524.25269,117.819183,522.49902,114.865646Q520.58185,111.636681,518.40436,110.318893Q518.39868,110.31546,518.39301,110.312035ZM496.78516,125.55469Q497.83984,125.20312,499.33398,124.67578Q500.82812,124.14844,502.41016,123.79688Q503.46484,123.44531,504.60742,124.5Q505.75,125.55469,506.7168,127.48828Q507.68359,129.42188,508.29883,132.14648Q508.91406,134.87108999999998,508.73828,137.68358999999998Q508.73828,138.38672,508.47461,142.25391000000002Q508.21094,146.12109,507.85938,151.48242Q507.50781,156.84375,507.06836,162.99609Q506.62891,169.14844,506.36523,174.42188Q506.10156,179.69531,506.01367,183.47461Q505.92578,187.25391,506.10156,187.95703Q506.45312,189.01172,508.03516,189.71484Q509.61719,190.41797,511.46289,190.76953Q513.30859,191.12109,514.97852,190.94531Q516.6484399999999,190.76953,517,190.24219Q517.17578,189.89062,518.0546899999999,186.55078Q518.93359,183.21094,519.98828,178.28906Q521.04297,173.36719,522.2734399999999,167.39062Q523.50391,161.41406,524.55859,155.70117Q525.61328,149.98828,526.31641,145.1543Q527.01953,140.32031,527.01953,137.85938Q527.01953,134.16797,526.14062,130.03710999999998Q525.26172,125.90625,523.85547,122.30273Q522.44922,118.69922,520.7792999999999,115.886719Q519.10938,113.074219,517.3515600000001,112.019531Q513.66016,109.734375,507.5957,110.4375Q502.4082,111.038956,496.51331,113.183823Q495.51697,113.546341,494.5,113.953125Q494.51874,112.868561,494.53549,111.790031Q494.67578,102.77359,494.67578,94.529297Q494.67578,85.300781,494.5,78.181641Q494.32422,71.0625,493.88477,66.755859Q493.44531,62.449219,492.91797,61.921875Q492.03906,61.21875,489.49023,62.537109Q486.94141,63.855469,484.04102,66.492188Q481.14062,69.128906,478.67969,72.556641Q476.21875,75.984375,475.51562,79.675781Q474.98828,84.597656,475.16406,97.429688Q475.16406,102.878906,475.42773,110.613281Q475.69141,118.34766,476.21875,128.89453Q476.74609,139.44141000000002,477.625,153.06445Q478.50391,166.6875,479.91016,183.91406Q480.26172,185.49609,481.4043,187.78125Q482.54688,190.06641,484.12891,192.08789Q485.71094,194.10938,487.38086,195.51562Q489.05078,196.92188,490.45703,196.74609Q491.16016,196.57031,491.77539,190.50586Q492.39062,184.44141,492.91797,174.50977Q493.44531,164.57812,493.79688,152.09766Q494.14844,139.61719,494.32422,126.60938Q495.37891,126.08203,496.78516,125.55469ZM416.40741,92.557564Q416.42014,92.542587,416.43283,92.526733Q417.60126,91.095016,418.48981,87.244644Q419.30585,83.708511,419.75812,79.818893Q420.21417,75.89678599999999,420.12228,72.589001Q420.01575,68.754681,418.89377,67.352173L418.82458,67.26567800000001L418.74628,67.187347Q417.74982,66.190895,412.87457,65.479919Q408.58301,64.854073,402.35736,64.409378Q396.15854,63.96661,388.99274,63.789673Q381.80609,63.612225,375.58624,63.878792Q369.31805,64.147427,364.80902,64.868874Q359.35349,65.74175600000001,358.36108,68.172665Q357.67578,69.743038,357.67578,75.193359Q357.67578,80.43495899999999,358.11841,88.313354Q358.55878,96.152298,359.26309,105.836479Q359.96732,115.519409,360.84778,125.55678L362.6059,145.24748Q363.48691,154.93867,364.36826,162.69458Q365.25208,170.47226,366.04987,175.52481Q366.87592,180.75652,367.31104,181.84435L367.35812,181.96204L367.41965,182.07285Q369.40942,185.65448,372.79346,187.94368Q376.00928,190.11908,378.90662,191.08487L378.97949,191.10916L379.05402,191.12779Q380.60144,191.51465,385.14084,191.9686Q389.56076,192.41058,394.33273,192.76407Q399.13022,193.11943,403.04831,193.20848Q407.77045,193.3158,408.72675,192.35953L408.79086,192.29538L408.84897,192.22569Q409.84277,191.03311,411.4256,188.23993Q412.95197,185.54637,414.2984,182.7637Q415.7066,179.85345,416.37192,177.19211Q417.22739,173.77019,415.90549,172.1178L415.8363,172.03131L415.758,171.95297Q414.51508,170.71005,405.93054,170.22777Q398.53793,169.81245,382.99939,169.63176Q383.13507,164.29645,383.20886,158.09802Q383.28583,151.6349,383.2955,145.0374Q393.05353,144.54649999999998,398.63742,143.98003Q404.98169,143.3364,406.1217,142.88039L406.31503,142.80304999999998L406.48834,142.68755Q408.02563,141.66266000000002,409.31592,138.75954000000002Q410.43469,136.24232,411.17856,133.45283999999998Q411.92841,130.64098,412.11862,128.26301999999998Q412.36804,125.14507,411.0119,123.78891Q410.18893,122.96596,402.14612,121.81698Q395.24133,120.83058,383.328,119.69445Q383.46436,111.037659,383.38464,103.385422Q383.31284,96.489525,383.29977,91.359695L406.08075,93.445274Q414.97836,94.236176,416.40741,92.557564ZM381.29932,91.176559Q381.31152,96.375671,381.38477,103.40625Q381.47266,111.84375,381.29688,121.51172Q394.48047,122.74219,401.86328,123.79688Q409.24609,124.85156,409.59766,125.20312Q410.30078,125.90625,410.125,128.10352Q409.94922,130.30078,409.24609,132.9375Q408.54297,135.57422,407.48828,137.94727Q406.43359,140.32031,405.37891,141.02344Q404.5,141.375,398.43555,141.99023Q392.37109,142.60547,381.29688,143.13281Q381.29688,150.69141,381.20898,158.07422Q381.13513,164.27719,380.99933,169.60983Q380.97357,170.62097,380.94531,171.60938Q381.96539,171.6199,382.94553,171.63127Q398.46234,171.81136,405.81836,172.22461Q413.64062,172.66406,414.34375,173.36719Q415.04688,174.24609,414.43164,176.70703Q413.81641,179.16797,412.49805,181.89258Q411.17969,184.61719,409.68555,187.25391Q408.19141,189.89062,407.3125,190.94531Q406.96094,191.29688,403.09375,191.20898Q399.22656,191.12109,394.48047,190.76953Q389.73438,190.41797,385.33984,189.97852Q380.94531,189.53906,379.53906,189.1875Q376.90234,188.30859,373.91406,186.28711Q370.92578,184.26562,369.16797,181.10156Q368.81641,180.22266,368.02539,175.21289Q367.23438,170.20312,366.35547,162.46875Q365.47656,154.73438,364.59766,145.06641000000002Q363.71875,135.39844,362.83984,125.37891Q361.96094,115.359375,361.25781,105.691406Q360.55469,96.023438,360.11523,88.201172Q359.67578,80.378906,359.67578,75.193359Q359.67578,70.007812,360.20312,68.953125Q360.73047,67.546875,365.125,66.84375Q369.51953,66.140625,375.67188,65.876953Q381.82422,65.613281,388.94336,65.789062Q396.0625,65.964844,402.21484,66.404297Q408.36719,66.84375,412.58594,67.458984Q416.80469,68.074219,417.33203,68.601562Q418.03516,69.480469,418.12305,72.644531Q418.21094,75.808594,417.77148,79.587891Q417.33203,83.367188,416.54102,86.794922Q415.75,90.222656,414.87109,91.277344Q414.16797,92.15625,406.25781,91.453125Q398.8194,90.791931,383.29694,89.353432Q382.30469,89.261475,381.29688,89.167969Q381.29688,90.137329,381.29932,91.176559ZM335.07135,97.034225Q334.51932,96.744209,333.24777,96.352966Q332.58252,96.148285,332.25623,96.190758Q331.92123,96.684181,330.81992,100.145477Q329.61707,103.925903,328.3183,109.813629Q327.01993,115.699486,326.06464,123.34182Q325.11328,130.95265999999998,325.11328,139.08983999999998Q325.11328,144.96825,325.63104,150.23196Q326.14905,155.4985,326.92178,159.44801Q327.6662,163.25284,328.7066,165.49371Q329.02908,166.18828,329.32397,166.6084Q329.67456,166.18257,330.10489,165.47377Q331.53925,163.11128,332.98538,159.96384Q334.45642,156.76218,335.57864,153.91344Q336.78189,150.85907,337.39441,149.8382Q339.01831,147.19913,341.62076,145.29733Q344.43304,143.24219,346.66797,143.24219Q348.95633,143.24219,349.86981,145.79998999999998Q350.37216,147.20653,350.66498,149.06113Q350.95312,150.88606,350.95312,152.80078L350.95312,155.61328Q350.95312,157.67967,350.23248,163.08464Q349.5155,168.46194,348.17242,174.01328Q346.8212,179.59842,345.09985,183.94704Q342.87927,189.55693,339.45566,189.2457Q337.22339,189.04276,333.07867,187.3472Q329.11728,185.72662,325.07251,183.5694Q321.02545,181.41096,317.68695,179.15523Q314.04919,176.6973,313.11508,175.06259Q312.29431,173.62625,310.82181,168.56451Q309.39496,163.65967,307.8855,156.55635Q306.37366,149.44188,305.30841,140.91994Q304.23828,132.35890999999998,304.23828,123.79688Q304.23828,115.306305,304.68057,106.991425Q305.12573,98.622162,306.19769,92.011887Q307.28952,85.278946,309.04797,81.021637Q311.1803,75.859188,314.85101,75.57401300000001Q322.05685,74.84008800000001,329.33997,76.776108Q336.52356,78.685677,342.27795,81.882545Q348.04861,85.088478,351.75558,88.702766Q355.81125,92.657051,356.04489,95.694267Q356.2337,98.337067,355.77719,102.90213Q355.33026,107.371338,354.52621,111.927658Q353.72,116.496239,352.73053,120.18428Q351.68283,124.08931,350.54318,125.21115Q350.54001,125.2142,350.5369,125.21731Q348.89273,126.86079,346.7179,128.67316Q343.57401,131.29306,340.4566,129.60638Q338.93524,128.80507,338.2117,125.5491Q337.66388,123.08386,337.21271,119.47463Q336.76862,115.921967,336.41379,111.841232Q336.06137,107.788353,335.79694,104.350662Q335.53589,100.957123,335.27591,98.617348Q335.16327,97.603638,335.07135,97.034225ZM341.39453,127.83984Q343.32812,128.89453,345.4375,127.13672Q347.54688,125.37891,349.12891,123.79688Q349.83203,123.26953,350.79883,119.66602Q351.76562,116.0625,352.55664,111.580078Q353.34766,107.097656,353.78711,102.703125Q354.22656,98.308594,354.05078,95.847656Q353.875,93.5625,350.35938,90.134766Q346.84375,86.707031,341.30664,83.630859Q335.76953,80.554688,328.82617,78.708984Q321.88281,76.863281,315.02734,77.566406Q312.56641,77.742188,310.89648,81.785156Q309.22656,85.828125,308.17188,92.332031Q307.11719,98.835938,306.67773,107.097656Q306.23828,115.359375,306.23828,123.79688Q306.23828,132.23438,307.29297,140.67188Q308.34766,149.10938,309.8418,156.14062Q311.33594,163.17188,312.74219,168.00586Q314.14844,172.83984,314.85156,174.07031Q315.55469,175.30078,318.80664,177.49805Q322.05859,179.69531,326.01367,181.80469Q329.96875,183.91406,333.83594,185.49609Q337.70312,187.07812,339.63672,187.25391Q341.57031,187.42969,343.24023,183.21094Q344.91016,178.99219,346.22852,173.54297Q347.54688,168.09375,348.25,162.82031Q348.95312,157.54688,348.95312,155.61328L348.95312,152.80078Q348.95312,151.04297,348.68945,149.37305Q348.42578,147.70312,347.98633,146.47266Q347.54688,145.24219,346.66797,145.24219Q345.08594,145.24219,342.80078,146.91211Q340.51562,148.58203,339.10938,150.86719Q338.58203,151.74609,337.43945,154.64648Q336.29688,157.54688,334.80273,160.79883Q333.30859,164.05078,331.81445,166.51172Q330.32031,168.97266,329.26562,168.97266Q328.03516,168.79688,326.89258,166.33594Q325.75,163.875,324.95898,159.83203Q324.16797,155.78906,323.64062,150.42773Q323.11328,145.06641000000002,323.11328,139.08983999999998Q323.11328,130.82812,324.08008,123.09375Q325.04688,115.359375,326.36523,109.382812Q327.68359,103.40625,328.91406,99.539062Q330.14453,95.671875,330.67188,94.96875Q331.55078,93.738281,333.83594,94.441406Q336.12109,95.144531,336.82422,95.847656Q337,96.023438,337.26367,98.396484Q337.52734,100.769531,337.79102,104.197266Q338.05469,107.625,338.40625,111.667969Q338.75781,115.710938,339.19727,119.22656Q339.63672,122.74219,340.16406,125.11523Q340.69141,127.48828,341.39453,127.83984ZM449.68073,97.034256Q449.12863,96.744202,447.85715,96.352966Q447.19189,96.148285,446.8656,96.190758Q446.53058,96.684219,445.42929,100.145477Q444.22641,103.925903,442.92767,109.813629Q441.62927,115.699699,440.67401,123.34182Q439.72266,130.9525,439.72266,139.08983999999998Q439.72266,144.96825,440.24042,150.23196Q440.75842,155.49872,441.53113,159.44801Q442.27557,163.25284,443.31598,165.49371Q443.63843,166.18828,443.93332,166.6084Q444.28391,166.18257,444.71423,165.47377Q446.14877,163.11101,447.59479,159.96384Q449.0658,156.76218,450.18805,153.91344Q451.3913,150.85907,452.00378,149.8382Q453.62762,147.19917,456.23016,145.29733Q459.04245,143.24219,461.27734,143.24219Q463.56567,143.24219,464.47919,145.79998999999998Q464.98157,147.20673,465.27438,149.06113Q465.5625,150.88593,465.5625,152.80078L465.5625,155.61328Q465.5625,157.67967,464.84186,163.08464Q464.12485,168.46214,462.78183,174.01328Q461.43063,179.5983,459.70923,183.94704Q457.48865,189.55693,454.06503,189.2457Q451.83273,189.04276,447.68805,187.3472Q443.72681,185.72668,439.68188,183.5694Q435.63474,181.41092,432.29633,179.15523Q428.65857,176.6973,427.72446,175.06259Q426.90366,173.62617,425.43115,168.56451Q424.00446,163.6602,422.49487,156.55635Q420.98303,149.44188,419.91782,140.91994Q418.84766,132.35875,418.84766,123.79688Q418.84766,115.305931,419.28992,106.991425Q419.73508,98.622353,420.80707,92.011887Q421.89886,85.279022,423.65735,81.021637Q425.78967,75.859188,429.46039,75.57401300000001Q436.66623,74.84008800000001,443.94934,76.776108Q451.1329,78.685665,456.8873,81.882545Q462.65802,85.088501,466.36496,88.702766Q470.42062,92.657051,470.65427,95.694267Q470.84308,98.337067,470.38657,102.90213Q469.93964,107.371338,469.13559,111.927658Q468.32935,116.496239,467.3399,120.18428Q466.29224,124.08926,465.15256,125.21114L465.14719,125.21642Q463.50293,126.86004,461.32724,128.67316Q458.18259,131.29372,455.06442,129.60555Q453.54425,128.80336,452.82104,125.5491Q452.27332,123.08428,451.82211,119.47463Q451.37799,115.921432,451.02316,111.841232Q450.67075,107.788353,450.40631,104.350662Q450.14523,100.956528,449.88531,98.617348Q449.77271,97.604141,449.68073,97.034256ZM456.00391,127.83984Q457.9375,128.89453,460.04688,127.13672Q462.15625,125.37891,463.73828,123.79688Q464.44141,123.26953,465.4082,119.66602Q466.375,116.0625,467.16602,111.580078Q467.95703,107.097656,468.39648,102.703125Q468.83594,98.308594,468.66016,95.847656Q468.48438,93.5625,464.96875,90.134766Q461.45312,86.707031,455.91602,83.630859Q450.37891,80.554688,443.43555,78.708984Q436.49219,76.863281,429.63672,77.566406Q427.17578,77.742188,425.50586,81.785156Q423.83594,85.828125,422.78125,92.332031Q421.72656,98.835938,421.28711,107.097656Q420.84766,115.359375,420.84766,123.79688Q420.84766,132.23438,421.90234,140.67188Q422.95703,149.10938,424.45117,156.14062Q425.94531,163.17188,427.35156,168.00586Q428.75781,172.83984,429.46094,174.07031Q430.16406,175.30078,433.41602,177.49805Q436.66797,179.69531,440.62305,181.80469Q444.57812,183.91406,448.44531,185.49609Q452.3125,187.07812,454.24609,187.25391Q456.17969,187.42969,457.84961,183.21094Q459.51953,178.99219,460.83789,173.54297Q462.15625,168.09375,462.85938,162.82031Q463.5625,157.54688,463.5625,155.61328L463.5625,152.80078Q463.5625,151.04297,463.29883,149.37305Q463.03516,147.70312,462.5957,146.47266Q462.15625,145.24219,461.27734,145.24219Q459.69531,145.24219,457.41016,146.91211Q455.125,148.58203,453.71875,150.86719Q453.19141,151.74609,452.04883,154.64648Q450.90625,157.54688,449.41211,160.79883Q447.91797,164.05078,446.42383,166.51172Q444.92969,168.97266,443.875,168.97266Q442.64453,168.79688,441.50195,166.33594Q440.35938,163.875,439.56836,159.83203Q438.77734,155.78906,438.25,150.42773Q437.72266,145.06641000000002,437.72266,139.08983999999998Q437.72266,130.82812,438.68945,123.09375Q439.65625,115.359375,440.97461,109.382812Q442.29297,103.40625,443.52344,99.539062Q444.75391,95.671875,445.28125,94.96875Q446.16016,93.738281,448.44531,94.441406Q450.73047,95.144531,451.43359,95.847656Q451.60938,96.023438,451.87305,98.396484Q452.13672,100.769531,452.40039,104.197266Q452.66406,107.625,453.01562,111.667969Q453.36719,115.710938,453.80664,119.22656Q454.24609,122.74219,454.77344,125.11523Q455.30078,127.48828,456.00391,127.83984ZM298.48114,91.876068Q298.58725,88.905449,297.65607,87.043076L297.63663,87.004204L297.61551,86.966217Q296.18533,84.391907,292.23828,84.268555Q289.09515,84.170334,285.61481,85.23378Q282.17709,86.284195,279.12537,88.286896Q275.64183,90.572952,274.93402000000003,93.640129Q274.325,96.279243,274.72458,99.276047Q275.10907,102.15979,276.08055,104.588486Q277.07492,107.074417,278.50302,108.808525Q280.19266,110.860214,282.14633,111.17498Q284.11743,111.585602,287.87091,110.911911Q292.09973,110.152893,294.3306,107.029663L294.36646,106.979485L294.39914,106.927185Q295.39273,105.337448,296.34442,102.672676Q297.2724,100.074356,297.82837,97.294579Q298.38748,94.499001,298.48114,91.876068ZM282.50781,109.207031Q284.08984,109.558594,287.51758,108.943359Q290.94531,108.328125,292.70312,105.867188Q293.58203,104.460938,294.46094,102Q295.33984,99.539062,295.86719,96.902344Q296.39453,94.265625,296.48242,91.804688Q296.57031,89.34375,295.86719,87.9375Q294.98828,86.355469,292.17578,86.267578Q289.36328,86.179688,286.19922,87.146484Q283.03516,88.113281,280.22266,89.958984Q277.41016,91.804688,276.88281,94.089844Q276.35546999999997,96.375,276.70703000000003,99.011719Q277.05859,101.648438,277.9375,103.845703Q278.81641,106.042969,280.04688,107.537109Q281.27734,109.03125,282.50781,109.207031ZM578.5459,99.176353Q577.22205,95.714088,575.60632,94.329147L575.54565,94.277161L575.48108,94.230186Q573.24475,92.603775,569.89465,91.71698Q566.73395,90.880333,563.3042,90.602249Q559.88086,90.324677,556.8092,90.60392Q553.70813,90.885834,551.75732,91.471069L551.71405,91.484062L551.67139,91.499008Q548.04346,92.768768,543.63007,94.930435Q538.86945,97.262169,536.81787,100.134399L536.79913,100.160645L536.78125,100.187477Q535.46729,102.158333,534.79199,107.367889Q534.16907,112.173264,533.72552,118.56066Q533.28296,124.93326,533.10608,132.00861Q532.92932,139.07915,533.01779,145.18328Q533.1066599999999,151.31459,533.4636800000001,155.68811Q533.84674,160.38042,534.54712,161.78116L534.58142,161.84985L534.62097,161.91571Q536.37463,164.8385,538.29962,166.45952Q540.341,168.17857,544.68176,169.16512L544.7243,169.17477L544.76721,169.18259Q546.78864,169.55011,550.74475,169.90976Q554.64136,170.26401,558.97742,170.52948Q563.32178,170.79546,567.13904,170.88423Q571.05249,170.97525,572.76776,170.78465Q576.18347,170.40512,578.96912,169.34851Q582.32794,168.07448,583.71094,164.64095Q584.34937,163.13644,584.64294,160.39667Q584.91492,157.85779,585.00507,154.70361Q585.09448,151.57317,585.00525,148.09131Q584.91663,144.63437,584.73804,141.42119L584.29871,134.65581Q584.03204,130.47829000000002,583.49951,125.68539Q582.96863,120.90776,582.26117,115.955437Q581.54907,110.970604,580.65723,106.689751Q579.74561,102.314148,578.5459,99.176353ZM581.86328,163.875Q582.39062,162.64453,582.6543,160.18359Q582.91797,157.72266,583.00586,154.64648Q583.09375,151.57031,583.00586,148.14258Q582.91797,144.71483999999998,582.74219,141.55078Q582.56641,138.91406,582.30273,134.7832Q582.03906,130.65233999999998,581.51172,125.90625Q580.98438,121.16016,580.28125,116.238281Q579.57812,111.316406,578.69922,107.097656Q577.82031,102.878906,576.67773,99.890625Q575.53516,96.902344,574.30469,95.847656Q572.37109,94.441406,569.38281,93.650391Q566.39453,92.859375,563.14258,92.595703Q559.89062,92.332031,556.99023,92.595703Q554.08984,92.859375,552.33203,93.386719Q548.81641,94.617188,544.50977,96.726562Q540.20312,98.835938,538.44531,101.296875Q537.39062,102.878906,536.77539,107.625Q536.16016,112.371094,535.7207,118.69922Q535.28125,125.02734,535.10547,132.05858999999998Q534.92969,139.08983999999998,535.01758,145.1543Q535.10547,151.21875,535.45703,155.52539Q535.80859,159.83203,536.33594,160.88672Q537.91797,163.52344,539.58789,164.92969Q541.25781,166.33594,545.125,167.21484Q547.05859,167.56641,550.92578,167.91797Q554.79297,168.26953,559.09961,168.5332Q563.40625,168.79688,567.18555,168.88477Q570.96484,168.97266,572.54688,168.79688Q575.71094,168.44531,578.25977,167.47852Q580.80859,166.51172,581.86328,163.875ZM164.44232,97.966721Q164.01056,92.785629,162.67972,91.898399Q160.72359,90.594315,157.88208,91.812103Q155.73225,92.733459,153.72849,94.53685Q151.7988,96.27356,150.26053,98.484825Q148.49608999999998,101.021202,148.49608999999998,103.230469Q148.49608999999998,104.586693,148.23473,109.814377L147.61935,122.64926Q147.2683,130.19666999999998,146.74184,139.23433L145.75725,155.72617Q145.23279,155.9684,144.66800999999998,156.21129Q142.38836,157.01913,139.60165,157.51091L139.58804,157.51331Q139.52289000000002,157.45618,139.42984,157.36313Q138.59097,156.52426,137.76581,154.94894Q136.91357,153.32195,136.35628,151.01315Q135.79688,148.69565,135.79688,146.12109Q135.79688,145.51295,136.13943,141.91618Q136.49203,138.21383,136.93231,133.01848999999999Q137.37261999999998,127.82291,137.81282,121.92424Q138.25146,116.046379,138.68986999999998,110.960838Q139.13467,105.80117,139.22404,102.047607Q139.31837000000002,98.085846,139.07701,97.120399L139.04408999999998,96.988716L138.99367999999998,96.862686Q138.3597,95.277771,136.27334000000002,94.234589Q134.5981,93.396965,132.71942,93.083855Q130.91196,92.782608,129.27759,92.884758Q126.8819,93.034485,125.98043,94.386696L125.91137,94.490295L125.85567,94.601669Q125.57883,95.155357,124.73373,98.629639L122.7997,106.629547Q121.647324,111.416344,120.496078,117.261154L118.298157,128.51449Q117.23259,134.01993,116.60968,138.64724Q115.976562,143.35039999999998,115.976562,145.94531Q115.976562,149.68048,116.903099,153.84988Q117.814285,157.9502,119.18605,161.51678Q120.5755,165.12938,122.35138,167.9334Q124.2484,170.92868,126.1636,172.20531Q130.12686,174.91701,135.88637,174.2097Q139.89449000000002,173.71747,144.57128,172.31839Q143.99075,179.33598,143.41101,184.48114Q142.85032999999999,189.4572,142.37469,191.00516Q141.85617000000002,190.95538,140.96642,190.64136Q138.07644,189.62137,134.65499,187.99619Q131.16771,186.33972,128.11977000000002,184.77222Q124.61305,182.96875,123.42578,182.96875Q120.868919,182.96875,120.313644,186.11533Q120.004272,187.86839,120.202835,190.15178Q120.389664,192.30029,120.856194,194.44635Q121.348938,196.713,121.988487,197.9921Q122.66096,199.33704,125.4393,202.11539Q128.12819000000002,204.80426,131.72069,207.19926Q135.34839,209.61774,139.44152,211.10614Q143.96357999999998,212.75053,147.78870999999998,211.47549Q149.69574,210.83981,152.33922,208.78378Q154.81055,206.86163,157.18375,204.48843Q159.56491,202.10727,161.31694,199.80197Q163.18719,197.34109,163.64346,195.97229L163.66776,195.89944L163.68639,195.82492Q164.08498,194.23053,164.35867,188.93925Q164.62314,183.82617,164.88737,176.51561Q165.15198,169.19473,165.24014,160.29129Q165.32812,151.40407,165.32812,142.25391000000002L165.32812,124.5Q165.32812,115.847763,165.06294,109.041283Q164.79755,102.229507,164.44232,97.966721ZM143.99219,192.35156Q143.28906,193.58203,140.30078,192.52734Q137.3125,191.47266,133.79688,189.80273Q130.28125,188.13281,127.20508,186.55078Q124.12891,184.96875,123.42578,184.96875Q122.54688,184.96875,122.2832,186.46289Q122.01953,187.95703,122.19531,189.97852Q122.37109,192,122.81055,194.02148Q123.25,196.04297,123.77734,197.09766Q124.30469,198.15234,126.85352,200.70117Q129.40233999999998,203.25,132.83008,205.53516Q136.25781,207.82031,140.125,209.22656Q143.99219,210.63281,147.15625,209.57812Q148.73828,209.05078,151.11133,207.20508Q153.48438,205.35938,155.76953,203.07422Q158.05469,200.78906,159.72461,198.5918Q161.39453,196.39453,161.74609,195.33984Q162.09766,193.93359,162.36133,188.83594Q162.625,183.73828,162.88867,176.44336Q163.15234,169.14844,163.24023,160.27148Q163.32812,151.39453,163.32812,142.25391000000002L163.32812,124.5Q163.32812,115.886719,163.06445,109.119141Q162.80078,102.351562,162.44922,98.132812Q162.09766,93.914062,161.57031,93.5625Q160.51562,92.859375,158.66992,93.650391Q156.82422,94.441406,155.06641,96.023438Q153.30859,97.605469,151.90234,99.626953Q150.49609,101.648438,150.49609,103.230469Q150.49609,104.636719,150.23242,109.910156Q149.96875,115.183594,149.61719,122.74219Q149.26562,130.30078,148.73828,139.35352Q148.21094,148.40625,147.68358999999998,157.01953Q146.62891000000002,157.54688,145.39844,158.07422Q142.9375,158.95312,139.94922,159.48047Q139.07031,159.83203,138.01562,158.77734Q136.96094,157.72266,135.99414000000002,155.87695Q135.02733999999998,154.03125,134.41210999999998,151.48242Q133.79688,148.93359,133.79688,146.12109Q133.79688,145.41797,134.14844,141.72656Q134.5,138.03516000000002,134.93945,132.84960999999998Q135.37891000000002,127.66406,135.81835999999998,121.77539Q136.25781,115.886719,136.69727,110.789062Q137.13672,105.691406,137.22460999999998,102Q137.3125,98.308594,137.13672,97.605469Q136.78516000000002,96.726562,135.37891000000002,96.023438Q133.97266000000002,95.320312,132.39062,95.056641Q130.80858999999998,94.792969,129.40233999999998,94.880859Q127.99609,94.96875,127.64453,95.496094Q127.46875,95.847656,126.67773,99.099609Q125.88672,102.351562,124.74414,107.097656Q123.60156,111.84375,122.45898,117.644531Q121.316406,123.44531,120.261719,128.89453Q119.207031,134.34375,118.591797,138.91406Q117.976562,143.48438,117.976562,145.94531Q117.976562,149.46094,118.855469,153.41602Q119.734375,157.37109,121.052734,160.79883Q122.37109,164.22656,124.04102,166.86328Q125.71094,169.5,127.29297,170.55469Q130.63281,172.83984,135.64258,172.22461Q139.80037,171.714,144.7452,170.17422Q145.75853999999998,169.85867,146.80469,169.5Q146.7179,170.60657,146.63134,171.66887Q146.01491,179.23396,145.39844,184.70508Q144.69531,190.94531,143.99219,192.35156ZM554.08984,105.515625Q551.80469,107.449219,551.62891,111.84375Q551.62891,113.074219,551.36523,118.78711Q551.10156,124.5,551.10156,131.0918Q551.10156,137.68358999999998,551.36523,143.30858999999998Q551.62891,148.93359,552.50781,150.16406Q553.38672,151.39453,555.05664,152.00977Q556.72656,152.625,558.57227,152.625Q560.41797,152.625,562.08789,152.00977Q563.75781,151.39453,564.46094,150.33984Q564.8125,149.63672,565.25195,146.0332Q565.69141,142.42969,565.95508,137.33203Q566.21875,132.23438,566.30664,126.43359Q566.39453,120.63281,566.39453,115.710938Q566.39453,110.789062,566.04297,107.361328Q565.69141,103.933594,565.16406,103.40625Q564.28516,102.703125,562.61523,102.791016Q560.94531,102.878906,559.1875,103.318359Q557.42969,103.757812,556.02344,104.373047Q554.61719,104.988281,554.08984,105.515625ZM563.76202,104.882286Q563.43298,104.750748,562.72034,104.788254Q561.24316,104.865997,559.67261,105.258652Q558.07758,105.657402,556.82507,106.205368Q555.76459,106.669334,555.50409,106.92984L555.44525,106.988663L555.38171,107.042404Q553.77643,108.400742,553.62885,111.886894Q553.62451,113.215408,553.36316,118.87933Q553.10156,124.54637,553.10156,131.0918Q553.10156,137.63683,553.36304,143.21495Q553.59912,148.25092,554.13531,149.00159Q554.65619,149.7308,555.74805,150.13309Q557.08325,150.625,558.57227,150.625Q560.06128,150.625,561.39648,150.13309Q562.33722,149.7865,562.71185,149.34311Q562.90729,148.73785,563.26666,145.7911Q563.69775,142.25628,563.95776,137.22872Q564.2196,132.16757,564.30688,126.40329Q564.39453,120.61862,564.39453,115.710938Q564.39453,110.891167,564.05347,107.565392Q563.81427,105.233292,563.76202,104.882286ZM297.4274,121.91344Q297.33261,116.889702,296.84525,115.671288L296.83124,115.636261L296.81592,115.601791Q295.60461,112.876343,291.80527,112.745331Q288.92493,112.646011,285.70709,113.621109Q282.50815,114.590485,279.70245,116.525452Q276.51477,118.72385,275.82144,121.72978Q275.41016,123.37488,275.41016,128.54297Q275.41016,133.51796000000002,275.76457,140.16316Q276.11722,146.77531,276.64597000000003,154.00143Q277.17627,161.24893,277.88403,167.44194Q278.59619,173.67334,279.40247,177.79419Q280.3923,182.85339,282.37527,183.38957L282.37433,183.39342Q284.21143,183.85269,287.81143,183.15268Q291.81412,182.37439,293.85815,179.19479L293.87488,179.16879L293.89078,179.14227Q294.6416,177.89093,295.21777,172.80115Q295.75031,168.09717,296.19284,161.45921Q296.63361,154.84798,296.98608,147.3577Q297.33923,139.85329000000002,297.42755,133.22784000000001Q297.51587,126.60336,297.4274,121.91344ZM282.85938,181.45312Q284.26562,181.80469,287.42969,181.18945Q290.59375,180.57422,292.17578,178.11328Q292.70312,177.23438,293.23047,172.57617Q293.75781,167.91797,294.19727,161.32617Q294.63672,154.73438,294.98828,147.26367Q295.33984,139.79297,295.42773,133.20117Q295.51562,126.60938,295.42773,121.95117Q295.33984,117.292969,294.98828,116.414062Q294.28516,114.832031,291.73633,114.744141Q289.1875,114.65625,286.28711,115.535156Q283.38672,116.414062,280.83789,118.17188Q278.28906,119.92969,277.76171999999997,122.21484Q277.41016,123.62109,277.41016,128.54297Q277.41016,133.46483999999998,277.76171999999997,140.05664000000002Q278.11328,146.64844,278.64062,153.85547Q279.16797,161.0625,279.87109,167.21484Q280.57422,173.36719,281.36523,177.41016Q282.15625,181.45312,282.85938,181.45312Z" fill-rule="evenodd" fill="#D4E4D1" fill-opacity="1"/></g></svg>